# xmcd
#
# Track frame offsets: 
#        150
#        32057
#        58380
#        78427
#        96110
#        126815
#        142372
#        157800
#        176600
#        192887
#        209655
#        225597
#        237662
#
# Disc length: 3345 seconds
#
# Revision: 1
# Processed by: cddbd v1.5.1PL2 Copyright (c) Steve Scherf et al.
# Submitted via: ExactAudioCopy v0.90b4
#
DISCID=bc0d0f0d
DTITLE=Tony Campise - Once In A Blue Moon
DYEAR=1991
DGENRE=Jazz
TTITLE0=TC Blues
TTITLE1=You'd Be So Nice To Come Home To
TTITLE2=Tab's Dream
TTITLE3=Sol Express
TTITLE4=Out of Nowhere
TTITLE5=Jack of Hearts
TTITLE6=Faded Love
TTITLE7=Parkers Mood
TTITLE8=Bermuja
TTITLE9=A Flower Is A Lovesome Thing
TTITLE10=Top Cat
TTITLE11=Ugly Beauty
TTITLE12=Two For The Road
EXTD=YEAR: 1991
EXTT0=
EXTT1=
EXTT2=
EXTT3=
EXTT4=
EXTT5=
EXTT6=
EXTT7=
EXTT8=
EXTT9=
EXTT10=
EXTT11=
EXTT12=
PLAYORDER=
